<svg width="64" height="64" version="1.1" id="rJt9A7aJGX" xmlns="http://www.w3.org/2000/svg" x="0" y="0" viewBox="0 0 93.1 93.2" xml:space="preserve"><style>@keyframes B1TcR7aJfX_HJT-Na1GQ_Animation{0%{transform:rotate(0deg)}to{transform:rotate(180deg)}}.st0{fill:#e9353d}#rJt9A7aJGX *{animation-duration:1s;animation-iteration-count:infinite;animation-timing-function:cubic-bezier(0,0,1,1)}</style><g style="animation-name:Byi5RQpkGQ_rknk4TJfQ_Animation;transform-origin:50% 50%;transform-box:fill-box"><g id="Byi5RQpkGQ"><path class="st0" d="M50.1 19.6c.1.2.4.9.5 1.1s.1.5-.1.6c-.3.1-.3.2-.3.5v1.4c0 .9.1 1.7.3 3.1.3 1.9.4 1.7.8 3s.6 1.5 1.2 3.2c.6 1.6 1.1 3 1.4 4.3.3.9 0 .8 0 1.1v1c0 .4.4 2.5.5 4.1s.1 4.5.1 4.8v.6c0 .2.2.4.1 1.1s-.4 3.6-.7 5.7c-.3 2-.4 2.8-.5 4.2-.1 1.4.1 3.1.3 4 .2 1 .7 2.4.8 3.6.1 1.2.1 2.1.1 2.6-.1.5-.2.9-.2 1.1-.1.1-.2.2-.3.4-.1.1-.4.5-.6.6s-.6.3-.8.3c-.1 0-.3.1-.4.1s-.2.1-.2.1h-.8s-.2.1-.3.1h-.3-.2c-.1 0-.3.1-.4 0H47.4c-.1 0-.3.1-.3 0H45.9c-.1 0-.2-.1-.2 0-.1 0-.2.1-.4 0-.1-.1-.2-.1-.3 0H42.1c-.1 0-.3-.1-.3 0h-.3c-.1 0-.4-.1-.4-.1s-.4-.1-.5-.1-.3-.1-.3-.1c-.1 0-.1 0-.2-.1-.1 0-.2-.1-.2-.1-.1 0-.2 0-.2-.1 0 0-.1-.1-.2-.1s-.1-.1-.2-.2l-.4-.4c-.1-.1-.2-.4-.4-1.2-.1-.9-.2-1.3 0-2.6s.5-2.4.7-3.2.5-1.6.6-2.8 0-2.3-.2-3.8-.4-3.5-.7-5.1c-.2-1.5-.4-2.6-.4-3s0-.6.1-.8c.1-.2.1-.7.1-.7 0-.1-.1-3.4.1-5.3s.5-3.5.5-3.7c0-.3.1-.5 0-.6-.1-.2-.2-.3-.1-.6 0-.4.4-1.6.7-2.5.3-1 .8-2.2 1.3-3.6.5-1.3 1.1-2.6 1.3-4 .3-1.4.4-2.5.4-3.5s.1-1.5 0-1.6V22v-.3c-.1 0-.3-.1-.4-.3-.1-.2 0-.5.2-.9s.4-.9.4-1.3l-.3-.1v-.2c0-.1.1-.5.1-.6s.1-.5.1-.6c.1-.1.3-.3 1.1-.4.8-.1 1.5-.2 2.4-.2 1.2 0 2.5.1 3.1.3.6.2.6.6.6.8 0 .2.1.8.1.9s0 .1-.4.2c.1 0 .1.1.2.3z" fill="#e9353d"/><g style="animation-name:B1TcR7aJfX_HJT-Na1GQ_Animation;transform-origin:50% 50%;transform-box:fill-box;animation-timing-function:cubic-bezier(.42,0,.58,1)"><g id="B1TcR7aJfX"><path class="st0" d="M46.5 93.2c-7.6 0-15.1-1.9-21.7-5.4l3.3-6.2c5.7 3 12 4.6 18.5 4.6 21.8 0 39.6-17.8 39.6-39.6 0-6-1.3-11.7-3.9-17.1l6.3-3c3 6.3 4.5 13 4.5 20.1 0 25.7-20.9 46.6-46.6 46.6zM4.4 66.4C1.5 60.2 0 53.5 0 46.6 0 20.9 20.9 0 46.6 0 54 0 61.4 1.8 67.9 5.2l-3.2 6.2C59.1 8.5 53 7 46.6 7 24.8 7 7 24.8 7 46.6c0 5.9 1.3 11.5 3.7 16.8l-6.3 3z" fill="#e9353d"/></g></g></g></g></svg>